<svg xmlns="http://www.w3.org/2000/svg" xmlns:xlink="http://www.w3.org/1999/xlink" width="0" height="0" style="position:absolute">
	
		<symbol id="fb" viewBox="0 0 11 24">
			<path fill-rule="evenodd" clip-rule="evenodd" d="M7.315 24H2.437V11.998H0V7.864h2.437V5.38C2.437 2.007 3.813 0 7.723 0h3.255v4.137H8.944c-1.523 0-1.623.578-1.623 1.656l-.007 2.07H11l-.431 4.135H7.314V24z" fill="#fff"></path>
		</symbol>
	
		<symbol id="hh" viewBox="0 0 22 24">
			<path fill-rule="evenodd" clip-rule="evenodd" d="M7.368 9.818h7.685V0H22v24h-6.947v-8.727H7.368V24H0V0h7.368v9.818z" fill="#fff"></path>
		</symbol>
	
		<symbol id="inst" viewBox="0 0 24 24">
			<path fill="none" d="M0 0h24v24H0z"></path><path fill="none" d="M0 0h24v24H0z"></path><path fill="none" d="M0 0h24v24H0z"></path><path d="M17.377 0H6.623A6.63 6.63 0 0 0 0 6.623v10.754A6.63 6.63 0 0 0 6.623 24h10.754A6.63 6.63 0 0 0 24 17.377V6.623A6.63 6.63 0 0 0 17.377 0zm4.494 17.377a4.499 4.499 0 0 1-4.494 4.494H6.623a4.499 4.499 0 0 1-4.494-4.494V6.623A4.499 4.499 0 0 1 6.623 2.13h10.754a4.499 4.499 0 0 1 4.494 4.494v10.754z" fill="#fff"></path><path d="M12 6.461a5.545 5.545 0 0 0-5.538 5.54A5.545 5.545 0 0 0 12 17.537 5.545 5.545 0 0 0 17.538 12 5.545 5.545 0 0 0 12 6.461zm0 9.17A3.635 3.635 0 0 1 8.369 12 3.636 3.636 0 0 1 12 8.368 3.636 3.636 0 0 1 15.631 12 3.635 3.635 0 0 1 12 15.631zM18 4.615A1.39 1.39 0 0 0 16.615 6c0 .364.149.721.407.98.257.256.614.405.978.405.365 0 .721-.149.98-.406.257-.258.405-.615.405-.979a1.39 1.39 0 0 0-.406-.98A1.39 1.39 0 0 0 18 4.616z" fill="#fff"></path>
		</symbol>
	
		<symbol id="loader" viewBox="">
			<g transform="translate(4 4)" stroke-width="8" fill="none" fill-rule="evenodd"><circle stroke-opacity=".3" cx="30" cy="30" r="30"></circle><path d="M60 30c0-9.94-8.06-30-30-30"><animateTransform attributeName="transform" type="rotate" from="0 30 30" to="360 30 30" dur="1s" repeatCount="indefinite"></animateTransform></path></g>
		</symbol>
	
		<symbol id="logo" viewBox="0 0 113 24">
			<path fill="none" d="M0 0h112.523v24H0z"></path><path fill-rule="evenodd" clip-rule="evenodd" d="M71.664 5.92c-.732 0-1.4.037-1.988.11-2.426.298-4.294 1.663-5.4 3.944-1.007 2.08-1.086 4.223-1.086 4.83 0 .604.079 2.735 1.09 4.81 1.105 2.271 2.97 3.642 5.394 3.965.512.068 1.12.102 1.808.102 2.102 0 4.323-.324 4.344-.328l.25-.036v-3.781s-2.434.17-3.657.17c-1.52 0-2.175-.1-2.458-.185-1.712-.511-1.884-3.194-1.878-4.322v-.79c-.006-1.155.164-3.89 1.867-4.319.497-.125 1.378-.191 2.545-.191 1.22 0 3.58.173 3.58.173V6.274l-.246-.04c-.02-.002-2.04-.314-4.165-.314z" fill="#fff"></path><mask id="a" maskUnits="userSpaceOnUse" x="0" y="0" width="113" height="24"><path fill="#000" fill-opacity="0" d="M0 0h112.523v24H0z"></path><path d="M0 0h112.523v24H0V0z" fill="#fff"></path></mask><g mask="url(#a)"><path fill-rule="evenodd" clip-rule="evenodd" d="M108.073 23.681h4.45V0h-4.45v23.681zM30.784 12.686h-6.58c.17-1.537.501-3.159 3.248-3.159 3.178 0 3.252 1.524 3.323 2.997l.009.162zm-3.177-6.868h-.217c-1.809 0-4.305.387-5.93 2.226-1.402 1.558-2.206 3.89-2.206 6.397v.64c0 .419.057 2.613 1.19 4.734 1.177 2.203 3.118 3.514 5.613 3.794.428.048.89.072 1.372.072 2.992 0 5.938-.912 6.062-.95l.206-.066v-3.367s-3.884.437-5.166.478c-3.92.127-4.381-1.868-4.428-3.438H35.1V13.33c0-2.473-.631-4.304-1.929-5.598-1.562-1.582-3.888-1.914-5.564-1.914zM56.444 12.709h-6.58c.17-1.537.502-3.16 3.248-3.16 3.178 0 3.252 1.524 3.324 2.998l.008.162zM53.267 5.84h-.217c-1.808 0-4.305.387-5.93 2.227-1.401 1.558-2.206 3.889-2.206 6.397v.64c0 .418.058 2.612 1.19 4.733 1.177 2.203 3.118 3.515 5.612 3.794.43.048.892.073 1.373.073 2.993 0 5.938-.912 6.063-.951l.206-.065V19.32s-3.884.437-5.167.478c-3.92.127-4.38-1.868-4.428-3.438H60.76v-3.007c0-2.473-.632-4.305-1.93-5.599-1.562-1.582-3.888-1.914-5.564-1.914zM100.823 12.709h-6.58c.17-1.537.501-3.16 3.248-3.16 3.178 0 3.252 1.524 3.323 2.998l.009.162zM97.646 5.84h-.217c-1.808 0-4.305.387-5.93 2.227-1.401 1.558-2.206 3.889-2.206 6.397v.64c0 .418.058 2.612 1.191 4.733 1.177 2.203 3.117 3.515 5.611 3.794.43.048.892.073 1.373.073 2.992 0 5.938-.912 6.062-.951l.207-.065V19.32s-3.885.437-5.167.478c-3.92.127-4.38-1.868-4.428-3.438h10.998v-3.007c0-2.473-.632-4.305-1.93-5.599-1.562-1.582-3.888-1.914-5.564-1.914zM38.034 23.704h4.45V0h-4.45v23.704z" fill="#fff"></path><path fill="none" d="M0 0h16.765v24H0z"></path><path fill-rule="evenodd" clip-rule="evenodd" d="M6.005 13.232c1.125.438 4.191 1.636 4.865 1.919.453.19.79.482 1.004.87l.084.153h4.807l-.04-.346c-.439-3.765-2.902-4.706-5.283-5.617-.8-.305-2.225-.813-3.267-1.183-.577-.206-1.032-.368-1.151-.414-1.377-.534-2.505-1.094-2.36-2.546.123-1.23 1.105-1.734 3.388-1.742 2.308.005 6.972.412 7.018.416l.314.028V.953l-.218-.06C15.134.886 10.726.019 7.992 0h-.113C5.893 0 4.245.357 2.981 1.06 1.003 2.16 0 4.066 0 6.723c0 2.922 1.796 4.868 6.005 6.509zM11.922 18.236c-.532 1.161-2.019 1.272-3.517 1.272h-.18c-2.391 0-7.531-.55-7.583-.556l-.32-.034v4.065l.22.058c.037.01 4.324.959 7.459.959 5.278 0 8.289-1.992 8.731-5.764h-4.81zM83.507 9.753h3.958v-3.76h-3.958V0h-4.51v16.193h4.51v-6.44zM85.586 19.728c-1.402 0-2.015-.432-2.073-1.48h-4.514c.038 3.673 2.43 5.197 4.67 5.396.163.015.345.022.54.022 1.377 0 3.401-.42 3.401-.42V19.6s-1.616.129-2.024.129z" fill="#fff"></path></g>
		</symbol>
	
		<symbol id="phone-number__icon" viewBox="0 0 22 22">
			<path d="M16.153 14.33l.006.001c1.313.434 2.695.654 4.104.654.682 0 1.237.556 1.237 1.237v4.041c0 .682-.555 1.237-1.237 1.237C9.367 21.5.5 12.633.5 1.737.5 1.055 1.055.5 1.737.5H5.79c.681 0 1.236.555 1.236 1.237 0 1.406.221 2.788.655 4.104.142.457.022.937-.307 1.266l-.025.025-.02.028-1.836 2.438-.191.254.149.281c1.557 2.935 3.463 4.84 6.415 6.415l.282.15.255-.193L14.9 14.62l.03-.022.025-.026c.262-.266.753-.395 1.198-.242z" stroke="#fff"></path>
		</symbol>
	
		<symbol id="twitter" viewBox="0 0 28 24">
			<path fill-rule="evenodd" clip-rule="evenodd" d="M24.701 3.794a6.014 6.014 0 0 0 2.525-3.35 11.14 11.14 0 0 1-3.649 1.47C22.532.734 21.038 0 19.385 0c-3.172 0-5.743 2.713-5.743 6.058 0 .475.048.938.147 1.38-4.773-.253-9.005-2.663-11.84-6.33a6.299 6.299 0 0 0-.777 3.047c0 2.1 1.014 3.955 2.555 5.044a5.539 5.539 0 0 1-2.603-.758v.075c0 2.936 1.979 5.386 4.61 5.94-.483.142-.99.213-1.515.213a5.4 5.4 0 0 1-1.08-.107c.73 2.406 2.851 4.16 5.366 4.207-1.967 1.626-4.444 2.593-7.134 2.593-.464 0-.922-.026-1.371-.083C2.542 22.996 5.562 24 8.806 24c10.567 0 16.343-9.232 16.343-17.238 0-.264-.004-.525-.015-.784A12.008 12.008 0 0 0 28 2.841a11.01 11.01 0 0 1-3.299.953z" fill="#fff"></path>
		</symbol>
	
		<symbol id="vk" viewBox="0 0 32 18">
			<path fill-rule="evenodd" clip-rule="evenodd" d="M17.57 17.925s.577-.064.873-.377c.27-.287.261-.828.261-.828s-.036-2.53 1.155-2.903c1.174-.367 2.681 2.446 4.28 3.527 1.209.818 2.126.64 2.126.64l4.274-.06s2.236-.135 1.176-1.868c-.088-.142-.618-1.282-3.177-3.625-2.681-2.452-2.321-2.055.906-6.298C31.41 3.55 32.195 1.973 31.95 1.3c-.233-.645-1.68-.474-1.68-.474l-4.81.03s-.358-.049-.622.107c-.259.153-.426.51-.426.51s-.76 1.998-1.776 3.698c-2.143 3.587-3 3.777-3.35 3.554-.815-.52-.612-2.086-.612-3.199 0-3.476.536-4.925-1.04-5.3C17.11.1 16.726.018 15.387.004c-1.716-.017-3.169.006-3.992.403-.548.264-.97.853-.712.887.318.042 1.037.191 1.42.704.492.662.475 2.146.475 2.146s.283 4.093-.662 4.6c-.648.35-1.537-.362-3.448-3.617-.978-1.666-1.717-3.509-1.717-3.509s-.142-.344-.397-.53c-.309-.223-.74-.292-.74-.292l-4.57.029s-.688.018-.94.313c-.224.26-.017.803-.017.803s3.58 8.257 7.633 12.419c3.717 3.815 7.937 3.565 7.937 3.565h1.912z" fill="#fff"></path>
		</symbol>
	
		<symbol id="youtube" viewBox="0 0 28 20">
			<path fill-rule="evenodd" clip-rule="evenodd" d="M11.136 14.22V5.78L18.455 10l-7.319 4.22zM27.415 3.124A3.543 3.543 0 0 0 24.939.597C22.756 0 14 0 14 0S5.244 0 3.06.597A3.543 3.543 0 0 0 .586 3.123C0 5.351 0 10 0 10s0 4.649.585 6.877a3.544 3.544 0 0 0 2.476 2.526C5.244 20 14 20 14 20s8.756 0 10.94-.597a3.544 3.544 0 0 0 2.475-2.526C28 14.649 28 10 28 10s0-4.649-.585-6.877z" fill="#fff"></path>
		</symbol>
	
</svg>
